<?xml version="1.0" standalone="yes"?>
<svg xmlns="http://www.w3.org/2000/svg" width="94" height="94">
<path style="fill:#000000; stroke:none;" d="M39 10L39 11C46.3044 15.152 54.8538 17.037 61 10C52.3339 12.4717 47.6604 13.3351 39 10M36 11C27.7848 15.7949 -3.14992 35.1285 18.9985 42.8912C21.3083 43.7008 23.5808 43.8892 26 44C24.6279 54.6253 18.9097 71.4062 23.7423 81.7716C25.6425 85.8474 32.187 85.7739 36 86.4136C46.9388 88.2487 64.7992 92.1871 73.6821 82.7222C79.86 76.1396 71.7713 60.4949 73.1481 52.0193C74.2202 45.42 82.0305 47.7731 84.9684 42.7755C91.9199 30.95 73.754 15.777 65 12L65 13C71.9109 17.6629 89.6722 30.6316 83.8789 41.6566C79.4638 50.0587 74.2331 41.0158 74 36L72 36C72 45.556 71.219 55.4897 72.1705 65C72.5816 69.1085 75.6307 75.0228 73.8789 78.9568C67.0265 94.3446 36.6498 84.5044 25 83L28 36L27 36C23.6031 40.6626 13.8716 44.2895 13.1134 34.9961C12.723 30.2102 19.6149 23.2779 23.0394 20.6096C25.9924 18.3086 31.068 14.5341 35 14.7377C44.8199 15.2459 56.8099 25.0987 64 12C54.4995 17.6462 44.2049 21.0533 36 11M78 25L79 26L78 25M47 35L48 36L47 35M36 36C34.7732 41.2299 35.0793 45.0558 41 46L41 45C36.3245 43.5795 35.5413 40.4399 39 37L36 36M55 36L55 37L63 41C63.6779 36.3055 58.6188 36.0877 55 36M50 37L50 38L54 38L50 37M56.6667 38.3333L57.3333 38.6667L56.6667 38.3333M62 42L61 47L62 47L62 42M39 43L40 44L39 43M44 44L44 45L47 45L44 44M29.3333 45.6667L29.6667 46.3333L29.3333 45.6667M42 46L42 47L47 47L42 46M51 47L51 48L60 48L51 47z"/>
</svg>
